<svg width="13" height="14" viewBox="0 0 13 14" fill="none" xmlns="http://www.w3.org/2000/svg">
<g clip-path="url(#clip0_305_810)">
<path d="M8.86361 0.5H4.13632C3.32087 0.5 2.65906 1.16181 2.65906 1.97726V12.0227C2.65906 12.8382 3.32087 13.5 4.13632 13.5H8.86361C9.67906 13.5 10.3409 12.8382 10.3409 12.0227V1.97726C10.3409 1.16181 9.67906 0.5 8.86361 0.5ZM6.49998 12.9091C6.00952 12.9091 5.61361 12.5132 5.61361 12.0227C5.61361 11.5323 6.00952 11.1364 6.49998 11.1364C6.99044 11.1364 7.38634 11.5323 7.38634 12.0227C7.38634 12.5132 6.99042 12.9091 6.49998 12.9091ZM9.15907 10.5455H3.84089V2.27273H9.15907V10.5455Z" fill="#664EF9"/>
</g>
<defs>
<clipPath id="clip0_305_810">
<rect width="13" height="13" fill="white" transform="translate(0 0.5)"/>
</clipPath>
</defs>
</svg>
