<svg width="18" height="18" viewBox="0 0 18 18" fill="none" xmlns="http://www.w3.org/2000/svg">
<path d="M16.8678 15.2581L13.5443 11.9344C13.3943 11.7844 13.191 11.7011 12.9776 11.7011H12.4343C13.3543 10.5243 13.901 9.04417 13.901 7.43401C13.901 3.60364 10.7975 0.5 6.96735 0.5C3.13717 0.5 0.0336914 3.60364 0.0336914 7.43401C0.0336914 11.2644 3.13717 14.368 6.96735 14.368C8.57743 14.368 10.0575 13.8213 11.2342 12.9012V13.4446C11.2342 13.658 11.3176 13.8613 11.4676 14.0113L14.7911 17.335C15.1044 17.6483 15.6111 17.6483 15.9211 17.335L16.8645 16.3916C17.1778 16.0782 17.1778 15.5715 16.8678 15.2581ZM6.96735 11.7011C4.61057 11.7011 2.70048 9.79424 2.70048 7.43401C2.70048 5.07711 4.60724 3.16693 6.96735 3.16693C9.32413 3.16693 11.2342 5.07378 11.2342 7.43401C11.2342 9.79091 9.32746 11.7011 6.96735 11.7011Z"/>
</svg>
