<svg width="18" height="18" viewBox="0 0 18 18" fill="none" xmlns="http://www.w3.org/2000/svg">
<path d="M6.91106 4.29814C6.91106 2.90551 5.93697 1.73697 4.6345 1.4358V0.661897C4.6345 0.296309 4.33819 0 3.9726 0C3.60702 0 3.31071 0.296309 3.31071 0.661897V1.4358C2.00831 1.73689 1.03415 2.90551 1.03415 4.29814C1.03415 5.69077 2.00824 6.85931 3.31071 7.16048V17.3381C3.31071 17.7037 3.60702 18 3.9726 18C4.33819 18 4.6345 17.7037 4.6345 17.3381V7.16048C5.93697 6.85931 6.91106 5.69077 6.91106 4.29814ZM2.35802 4.29814C2.35802 3.40781 3.08235 2.68348 3.97268 2.68348C4.863 2.68348 5.58734 3.40781 5.58734 4.29814C5.58734 5.18846 4.863 5.9128 3.97268 5.9128C3.08235 5.9128 2.35802 5.18846 2.35802 4.29814Z" fill="white"/>
<path d="M9.66191 8.89222V0.661897C9.66191 0.296309 9.3656 0 9.00001 0C8.63442 0 8.33811 0.296309 8.33811 0.661897V8.89222C7.03572 9.19331 6.06155 10.3619 6.06155 11.7546C6.06155 13.1472 7.03565 14.3157 8.33811 14.6169V17.3381C8.33811 17.7037 8.63442 18 9.00001 18C9.3656 18 9.66191 17.7037 9.66191 17.3381V14.6169C10.9643 14.3158 11.9385 13.1472 11.9385 11.7546C11.9385 10.3619 10.9644 9.19338 9.66191 8.89222ZM7.38542 11.7546C7.38542 10.8642 8.10976 10.1399 9.00008 10.1399C9.89041 10.1399 10.6147 10.8642 10.6147 11.7546C10.6147 12.6449 9.89041 13.3692 9.00008 13.3692C8.10976 13.3692 7.38542 12.6449 7.38542 11.7546Z" fill="white"/>
<path d="M16.9657 7.20151C16.9657 5.80888 15.9916 4.64034 14.6891 4.33918V0.661897C14.6891 0.296309 14.3928 0 14.0272 0C13.6616 0 13.3653 0.296309 13.3653 0.661897V4.33918C12.0629 4.64027 11.0887 5.80888 11.0887 7.20151C11.0887 8.59415 12.0628 9.76269 13.3653 10.0639V17.3381C13.3653 17.7037 13.6616 18 14.0272 18C14.3928 18 14.6891 17.7037 14.6891 17.3381V10.0639C15.9916 9.76269 16.9657 8.59415 16.9657 7.20151ZM12.4126 7.20151C12.4126 6.31119 13.1369 5.58685 14.0273 5.58685C14.9176 5.58685 15.6419 6.31119 15.6419 7.20151C15.6419 8.09184 14.9176 8.81618 14.0273 8.81618C13.1369 8.81618 12.4126 8.09184 12.4126 7.20151Z" fill="white"/>
</svg>
