<svg width="13" height="14" viewBox="0 0 13 14" fill="none" xmlns="http://www.w3.org/2000/svg">
<g clip-path="url(#clip0_305_787)">
<path d="M6.50089 0.5C4.64374 0.5 3.12561 2.01813 3.12561 3.87529C3.12561 5.73244 4.64374 7.25058 6.50089 7.25058C8.35805 7.25058 9.87618 5.73244 9.87618 3.87529C9.87618 2.01813 8.35805 0.5 6.50089 0.5Z" fill="#686868"/>
<path d="M12.2935 9.94801C12.205 9.72692 12.0871 9.52058 11.9545 9.32896C11.2765 8.32668 10.23 7.66342 9.05086 7.50128C8.90348 7.48656 8.74135 7.51601 8.62342 7.60446C8.00437 8.06137 7.26742 8.2972 6.50096 8.2972C5.7345 8.2972 4.99756 8.06137 4.3785 7.60446C4.26058 7.51601 4.09845 7.4718 3.95107 7.50128C2.77193 7.66342 1.71071 8.32668 1.04745 9.32896C0.9148 9.52058 0.796875 9.74167 0.708459 9.94801C0.664251 10.0365 0.678977 10.1396 0.723185 10.2281C0.841111 10.4344 0.988489 10.6408 1.12114 10.8176C1.32748 11.0977 1.54858 11.3483 1.79916 11.5841C2.0055 11.7904 2.24132 11.982 2.47717 12.1736C3.64156 13.0433 5.04179 13.5002 6.48624 13.5002C7.93068 13.5002 9.33092 13.0432 10.4953 12.1736C10.7311 11.9968 10.9669 11.7904 11.1733 11.5841C11.4091 11.3483 11.645 11.0977 11.8513 10.8176C11.9987 10.626 12.1314 10.4344 12.2493 10.2281C12.3229 10.1396 12.3377 10.0364 12.2935 9.94801Z" fill="#686868"/>
</g>
<defs>
<clipPath id="clip0_305_787">
<rect width="13" height="13" fill="white" transform="translate(0 0.5)"/>
</clipPath>
</defs>
</svg>
