<svg width="18" height="19" viewBox="0 0 18 19" fill="none" xmlns="http://www.w3.org/2000/svg">
<g clip-path="url(#clip0_312_538)">
<path d="M14.7035 10.2305C14.4275 9.88189 14.5064 9.72681 14.7035 9.41522C14.707 9.41167 16.9856 6.26311 17.2203 5.19534L17.2217 5.19463C17.3384 4.8055 17.2217 4.51953 16.6576 4.51953H14.791C14.3158 4.51953 14.0967 4.76496 13.9793 5.03955C13.9793 5.03955 13.0289 7.31453 11.6844 8.78921C11.2504 9.21533 11.0498 9.35191 10.813 9.35191C10.6963 9.35191 10.5149 9.21533 10.5149 8.8262V5.19463C10.5149 4.72796 10.3819 4.51953 9.98847 4.51953H7.05333C6.75526 4.51953 6.57813 4.73721 6.57813 4.93995C6.57813 5.38243 7.25038 5.48416 7.32009 6.72907V9.43016C7.32009 10.022 7.21267 10.1309 6.97436 10.1309C6.33982 10.1309 4.79969 7.84664 3.88699 5.23233C3.70274 4.72512 3.52277 4.52024 3.04401 4.52024H1.17665C0.643825 4.52024 0.536407 4.76567 0.536407 5.04026C0.536407 5.52542 1.17096 7.93769 3.4872 11.1247C5.03088 13.3 7.20485 14.4788 9.18248 14.4788C10.3712 14.4788 10.5163 14.217 10.5163 13.7667C10.5163 11.6881 10.4089 11.4917 11.0043 11.4917C11.2803 11.4917 11.7555 11.6283 12.8653 12.6776C14.1337 13.9218 14.3421 14.4788 15.052 14.4788H16.9187C17.4508 14.4788 17.7204 14.217 17.5653 13.7006C17.2104 12.6143 14.8116 10.3798 14.7035 10.2305Z" fill="#664EF9"/>
</g>
<defs>
<clipPath id="clip0_312_538">
<rect width="17.073" height="17.073" fill="white" transform="translate(0.536407 0.962891)"/>
</clipPath>
</defs>
</svg>
