<svg width="21" height="21" viewBox="0 0 21 21" fill="none" xmlns="http://www.w3.org/2000/svg">
<path d="M16.1558 4.87929C15.3846 4.10244 14.4667 3.48655 13.4555 3.06738C12.4442 2.64821 11.3598 2.43412 10.2651 2.43754C5.67675 2.43754 1.94218 6.17211 1.94218 10.7637C1.94218 12.2308 2.32656 13.6654 3.05436 14.9257L1.87286 19.241L6.28692 18.0826C7.50723 18.7473 8.87449 19.0961 10.2641 19.0971H10.2672C14.8556 19.0971 18.5934 15.3625 18.5934 10.771C18.5961 9.67672 18.3821 8.59273 17.9635 7.58165C17.5449 6.57058 16.9302 5.65246 16.1548 4.88034L16.1558 4.87929ZM10.2672 17.6919C9.0271 17.6921 7.80973 17.3588 6.74272 16.7268L6.48961 16.5755L3.87038 17.2613L4.56982 14.7083L4.40599 14.4457C3.71049 13.3438 3.34295 12.0667 3.34632 10.7637C3.34854 8.92797 4.07897 7.16815 5.37729 5.87042C6.67561 4.57269 8.43576 3.84307 10.2714 3.84168C12.1188 3.84168 13.859 4.56423 15.1644 5.86965C15.8086 6.51152 16.3192 7.2747 16.6668 8.11507C17.0143 8.95544 17.1919 9.85636 17.1892 10.7658C17.1861 14.5854 14.0816 17.6909 10.2672 17.6909V17.6919ZM14.0617 12.507C13.8548 12.402 12.8308 11.9 12.6407 11.8307C12.4506 11.7614 12.312 11.7256 12.1713 11.9357C12.0337 12.1426 11.6336 12.612 11.5117 12.7528C11.3899 12.8903 11.2691 12.9103 11.0623 12.8053C10.8554 12.7002 10.1822 12.4808 9.38821 11.7719C8.77068 11.2205 8.35165 10.5379 8.22982 10.331C8.108 10.1241 8.21617 10.0096 8.32224 9.90773C8.41781 9.81531 8.52914 9.66513 8.63416 9.5433C8.73918 9.42148 8.77174 9.33641 8.84105 9.19568C8.91036 9.0581 8.87676 8.93628 8.82425 8.83125C8.77173 8.72623 8.3548 7.70227 8.18466 7.28534C8.01768 6.87785 7.84334 6.93457 7.71522 6.92721C7.59339 6.92091 7.45581 6.92091 7.31824 6.92091C7.18066 6.92091 6.95381 6.97342 6.76372 7.18032C6.57363 7.38721 6.03487 7.89236 6.03487 8.91632C6.03487 9.94028 6.77947 10.9285 6.8845 11.0693C6.98952 11.2068 8.35165 13.3104 10.4384 14.2105C10.9341 14.4237 11.3217 14.5518 11.6231 14.6505C12.1219 14.808 12.5746 14.7849 12.9327 14.7324C13.3328 14.6736 14.1635 14.2304 14.3379 13.7442C14.5122 13.2579 14.5122 12.842 14.4597 12.7559C14.4103 12.6635 14.2728 12.612 14.0627 12.506L14.0617 12.507Z" fill="#664EF9"/>
</svg>
